<svg width="20" height="21" viewBox="0 0 20 21" fill="none" xmlns="http://www.w3.org/2000/svg">
<g clip-path="url(#clip0_602_13885)">
<path d="M5.83333 0H3.33333C2.44928 0 1.60143 0.35119 0.976311 0.976311C0.35119 1.60143 0 2.44928 0 3.33333L0 5.83333C0 6.71739 0.35119 7.56524 0.976311 8.19036C1.60143 8.81548 2.44928 9.16667 3.33333 9.16667H5.83333C6.71739 9.16667 7.56524 8.81548 8.19036 8.19036C8.81548 7.56524 9.16667 6.71739 9.16667 5.83333V3.33333C9.16667 2.44928 8.81548 1.60143 8.19036 0.976311C7.56524 0.35119 6.71739 0 5.83333 0ZM7.5 5.83333C7.5 6.27536 7.32441 6.69928 7.01184 7.01184C6.69928 7.32441 6.27536 7.5 5.83333 7.5H3.33333C2.89131 7.5 2.46738 7.32441 2.15482 7.01184C1.84226 6.69928 1.66667 6.27536 1.66667 5.83333V3.33333C1.66667 2.89131 1.84226 2.46738 2.15482 2.15482C2.46738 1.84226 2.89131 1.66667 3.33333 1.66667H5.83333C6.27536 1.66667 6.69928 1.84226 7.01184 2.15482C7.32441 2.46738 7.5 2.89131 7.5 3.33333V5.83333Z" fill="#333333"/>
<path d="M16.6693 0H14.1693C13.2852 0 12.4374 0.35119 11.8122 0.976311C11.1871 1.60143 10.8359 2.44928 10.8359 3.33333V5.83333C10.8359 6.71739 11.1871 7.56524 11.8122 8.19036C12.4374 8.81548 13.2852 9.16667 14.1693 9.16667H16.6693C17.5533 9.16667 18.4012 8.81548 19.0263 8.19036C19.6514 7.56524 20.0026 6.71739 20.0026 5.83333V3.33333C20.0026 2.44928 19.6514 1.60143 19.0263 0.976311C18.4012 0.35119 17.5533 0 16.6693 0ZM18.3359 5.83333C18.3359 6.27536 18.1603 6.69928 17.8478 7.01184C17.5352 7.32441 17.1113 7.5 16.6693 7.5H14.1693C13.7272 7.5 13.3033 7.32441 12.9908 7.01184C12.6782 6.69928 12.5026 6.27536 12.5026 5.83333V3.33333C12.5026 2.89131 12.6782 2.46738 12.9908 2.15482C13.3033 1.84226 13.7272 1.66667 14.1693 1.66667H16.6693C17.1113 1.66667 17.5352 1.84226 17.8478 2.15482C18.1603 2.46738 18.3359 2.89131 18.3359 3.33333V5.83333Z" fill="#333333"/>
<path d="M5.83333 10.833H3.33333C2.44928 10.833 1.60143 11.1842 0.976311 11.8093C0.35119 12.4344 0 13.2823 0 14.1663L0 16.6663C0 17.5504 0.35119 18.3982 0.976311 19.0234C1.60143 19.6485 2.44928 19.9997 3.33333 19.9997H5.83333C6.71739 19.9997 7.56524 19.6485 8.19036 19.0234C8.81548 18.3982 9.16667 17.5504 9.16667 16.6663V14.1663C9.16667 13.2823 8.81548 12.4344 8.19036 11.8093C7.56524 11.1842 6.71739 10.833 5.83333 10.833ZM7.5 16.6663C7.5 17.1084 7.32441 17.5323 7.01184 17.8449C6.69928 18.1574 6.27536 18.333 5.83333 18.333H3.33333C2.89131 18.333 2.46738 18.1574 2.15482 17.8449C1.84226 17.5323 1.66667 17.1084 1.66667 16.6663V14.1663C1.66667 13.7243 1.84226 13.3004 2.15482 12.9878C2.46738 12.6753 2.89131 12.4997 3.33333 12.4997H5.83333C6.27536 12.4997 6.69928 12.6753 7.01184 12.9878C7.32441 13.3004 7.5 13.7243 7.5 14.1663V16.6663Z" fill="#333333"/>
<path d="M16.6693 10.833H14.1693C13.2852 10.833 12.4374 11.1842 11.8122 11.8093C11.1871 12.4344 10.8359 13.2823 10.8359 14.1663V16.6663C10.8359 17.5504 11.1871 18.3982 11.8122 19.0234C12.4374 19.6485 13.2852 19.9997 14.1693 19.9997H16.6693C17.5533 19.9997 18.4012 19.6485 19.0263 19.0234C19.6514 18.3982 20.0026 17.5504 20.0026 16.6663V14.1663C20.0026 13.2823 19.6514 12.4344 19.0263 11.8093C18.4012 11.1842 17.5533 10.833 16.6693 10.833ZM18.3359 16.6663C18.3359 17.1084 18.1603 17.5323 17.8478 17.8449C17.5352 18.1574 17.1113 18.333 16.6693 18.333H14.1693C13.7272 18.333 13.3033 18.1574 12.9908 17.8449C12.6782 17.5323 12.5026 17.1084 12.5026 16.6663V14.1663C12.5026 13.7243 12.6782 13.3004 12.9908 12.9878C13.3033 12.6753 13.7272 12.4997 14.1693 12.4997H16.6693C17.1113 12.4997 17.5352 12.6753 17.8478 12.9878C18.1603 13.3004 18.3359 13.7243 18.3359 14.1663V16.6663Z" fill="#333333"/>
</g>
<defs>
<clipPath id="clip0_602_13885">
<rect width="20" height="20" fill="white" transform="translate(0 0.321289)"/>
</clipPath>
</defs>
</svg>
