<svg width="20" height="21" viewBox="0 0 20 21" fill="none" xmlns="http://www.w3.org/2000/svg">
<path d="M15.8333 4.33333H14.9167C14.7233 3.39284 14.2115 2.54779 13.4677 1.9406C12.7239 1.33341 11.7935 1.00121 10.8333 1L9.16667 1C8.2065 1.00121 7.2761 1.33341 6.53229 1.9406C5.78848 2.54779 5.27675 3.39284 5.08333 4.33333H4.16667C3.062 4.33466 2.00296 4.77407 1.22185 5.55518C0.440735 6.3363 0.00132321 7.39534 0 8.5L0 16.8333C0.00132321 17.938 0.440735 18.997 1.22185 19.7782C2.00296 20.5593 3.062 20.9987 4.16667 21H15.8333C16.938 20.9987 17.997 20.5593 18.7782 19.7782C19.5593 18.997 19.9987 17.938 20 16.8333V8.5C19.9987 7.39534 19.5593 6.3363 18.7782 5.55518C17.997 4.77407 16.938 4.33466 15.8333 4.33333ZM9.16667 2.66667H10.8333C11.3485 2.6688 11.8505 2.83007 12.2706 3.12841C12.6906 3.42674 13.0083 3.84758 13.18 4.33333H6.82C6.99174 3.84758 7.30936 3.42674 7.72942 3.12841C8.14948 2.83007 8.65145 2.6688 9.16667 2.66667ZM4.16667 6H15.8333C16.4964 6 17.1323 6.26339 17.6011 6.73223C18.0699 7.20107 18.3333 7.83696 18.3333 8.5V11H1.66667V8.5C1.66667 7.83696 1.93006 7.20107 2.3989 6.73223C2.86774 6.26339 3.50363 6 4.16667 6ZM15.8333 19.3333H4.16667C3.50363 19.3333 2.86774 19.0699 2.3989 18.6011C1.93006 18.1323 1.66667 17.4964 1.66667 16.8333V12.6667H9.16667V13.5C9.16667 13.721 9.25446 13.933 9.41074 14.0893C9.56702 14.2455 9.77899 14.3333 10 14.3333C10.221 14.3333 10.433 14.2455 10.5893 14.0893C10.7455 13.933 10.8333 13.721 10.8333 13.5V12.6667H18.3333V16.8333C18.3333 17.4964 18.0699 18.1323 17.6011 18.6011C17.1323 19.0699 16.4964 19.3333 15.8333 19.3333Z" fill="#800080"/>
</svg>
