<svg width="20" height="21" viewBox="0 0 20 21" fill="none" xmlns="http://www.w3.org/2000/svg">
<g clip-path="url(#clip0_602_13895)">
<path d="M19.2675 8.23598L12.9467 1.91431C12.1644 1.1343 11.1047 0.696289 10 0.696289C8.89529 0.696289 7.83564 1.1343 7.05334 1.91431L0.73251 8.23598C0.499531 8.46746 0.314818 8.74289 0.189079 9.0463C0.0633394 9.3497 -0.000925334 9.67505 1.00662e-05 10.0035V18.1843C1.00662e-05 18.8474 0.263402 19.4832 0.732243 19.9521C1.20108 20.4209 1.83697 20.6843 2.50001 20.6843H17.5C18.1631 20.6843 18.7989 20.4209 19.2678 19.9521C19.7366 19.4832 20 18.8474 20 18.1843V10.0035C20.0009 9.67505 19.9367 9.3497 19.8109 9.0463C19.6852 8.74289 19.5005 8.46746 19.2675 8.23598ZM12.5 19.0176H7.50001V15.7393C7.50001 15.0763 7.7634 14.4404 8.23224 13.9715C8.70108 13.5027 9.33697 13.2393 10 13.2393C10.6631 13.2393 11.2989 13.5027 11.7678 13.9715C12.2366 14.4404 12.5 15.0763 12.5 15.7393V19.0176ZM18.3333 18.1843C18.3333 18.4053 18.2455 18.6173 18.0893 18.7736C17.933 18.9298 17.721 19.0176 17.5 19.0176H14.1667V15.7393C14.1667 14.6342 13.7277 13.5744 12.9463 12.793C12.1649 12.0116 11.1051 11.5726 10 11.5726C8.89494 11.5726 7.83513 12.0116 7.05373 12.793C6.27233 13.5744 5.83334 14.6342 5.83334 15.7393V19.0176H2.50001C2.279 19.0176 2.06703 18.9298 1.91075 18.7736C1.75447 18.6173 1.66668 18.4053 1.66668 18.1843V10.0035C1.66745 9.78263 1.75517 9.57096 1.91084 9.41431L8.23168 3.09514C8.70143 2.62759 9.33723 2.3651 10 2.3651C10.6628 2.3651 11.2986 2.62759 11.7683 3.09514L18.0892 9.41681C18.2442 9.57285 18.3319 9.78349 18.3333 10.0035V18.1843Z" fill="#333333"/>
</g>
<defs>
<clipPath id="clip0_602_13895">
<rect width="20" height="21" fill="white"/>
</clipPath>
</defs>
</svg>
