<svg width="24" height="24" viewBox="0 0 24 24" fill="none" xmlns="http://www.w3.org/2000/svg">
<g clip-path="url(#clip0_602_13986)">
<path d="M12 0C5.36761 0 0 5.367 0 12C0 18.6323 5.367 24 12 24C18.6324 24 24 18.633 24 12C24 5.36761 18.633 0 12 0ZM12 22.3256C6.30647 22.3256 1.67442 17.6936 1.67442 12C1.67442 6.30642 6.30647 1.67442 12 1.67442C17.6936 1.67442 22.3256 6.30642 22.3256 12C22.3256 17.6936 17.6936 22.3256 12 22.3256Z" fill="#333333"/>
<path d="M11.6458 15.1836C10.9824 15.1836 10.4453 15.7364 10.4453 16.3998C10.4453 17.0475 10.9666 17.6161 11.6458 17.6161C12.325 17.6161 12.862 17.0475 12.862 16.3998C12.862 15.7364 12.3092 15.1836 11.6458 15.1836Z" fill="#333333"/>
<path d="M11.8539 5.97559C9.7215 5.97559 8.74219 7.23929 8.74219 8.09223C8.74219 8.70826 9.26344 8.9926 9.68991 8.9926C10.5429 8.9926 10.1954 7.77629 11.8065 7.77629C12.5963 7.77629 13.2282 8.12382 13.2282 8.85043C13.2282 9.70337 12.3436 10.193 11.8223 10.6353C11.3642 11.0301 10.764 11.6778 10.764 13.0362C10.764 13.8576 10.9852 14.0945 11.6328 14.0945C12.4067 14.0945 12.5647 13.747 12.5647 13.4469C12.5647 12.6255 12.5805 12.1516 13.4493 11.4724C13.8757 11.1407 15.2183 10.0666 15.2183 8.58184C15.2183 7.09707 13.8757 5.97559 11.8539 5.97559Z" fill="#333333"/>
</g>
<defs>
<clipPath id="clip0_602_13986">
<rect width="24" height="24" fill="white"/>
</clipPath>
</defs>
</svg>
