<svg width="20" height="20" viewBox="0 0 20 20" fill="none" xmlns="http://www.w3.org/2000/svg">
<g clip-path="url(#clip0_602_13923)">
<path d="M19.39 14.8067L16.9275 17.2692C16.765 17.4317 16.5517 17.5133 16.3383 17.5133C16.125 17.5133 15.9117 17.4317 15.7492 17.2692C15.4233 16.9433 15.4233 16.4167 15.7492 16.0908L17.6733 14.1667H14.5842C13.435 14.1667 12.5008 15.1008 12.5008 16.25V19.1667C12.5008 19.6275 12.1283 20 11.6675 20C11.2067 20 10.8342 19.6275 10.8342 19.1667V16.25C10.8342 14.1825 12.5167 12.5 14.5842 12.5H17.6733L15.7625 10.5892C15.4367 10.2633 15.4367 9.73667 15.7625 9.41083C16.0883 9.085 16.615 9.085 16.9408 9.41083L19.39 11.86C20.2025 12.6725 20.2025 13.995 19.39 14.8067ZM11.6667 5C11.6667 7.7575 9.42417 10 6.66667 10C3.90917 10 1.66667 7.7575 1.66667 5C1.66667 2.2425 3.90917 0 6.66667 0C9.42417 0 11.6667 2.2425 11.6667 5ZM10 5C10 3.16167 8.505 1.66667 6.66667 1.66667C4.82833 1.66667 3.33333 3.16167 3.33333 5C3.33333 6.83833 4.82833 8.33333 6.66667 8.33333C8.505 8.33333 10 6.83833 10 5ZM9.37333 11.9025C8.76333 11.7458 8.1325 11.6667 7.5 11.6667C3.36417 11.6667 0 15.0308 0 19.1667C0 19.6275 0.3725 20 0.833333 20C1.29417 20 1.66667 19.6275 1.66667 19.1667C1.66667 15.9508 4.28417 13.3333 7.5 13.3333C7.99333 13.3333 8.48417 13.395 8.96 13.5175C9.40083 13.6333 9.85917 13.3633 9.97417 12.9167C10.0883 12.4717 9.81917 12.0175 9.37333 11.9025Z" fill="#333333"/>
</g>
<defs>
<clipPath id="clip0_602_13923">
<rect width="20" height="20" fill="white"/>
</clipPath>
</defs>
</svg>
