<svg width="24" height="24" viewBox="0 0 24 24" fill="none" xmlns="http://www.w3.org/2000/svg">
<g clip-path="url(#clip0_602_13998)">
<path d="M11.131 12.207C10.576 12.75 9.849 13.021 9.122 13.021C8.39 13.021 7.658 12.746 7.102 12.196L5.322 10.436C4.929 10.048 4.926 9.415 5.314 9.022C5.702 8.629 6.334 8.626 6.728 9.014L8.508 10.774C8.844 11.106 9.392 11.109 9.732 10.777L13.3 7.285C13.695 6.898 14.327 6.907 14.714 7.301C15.1 7.696 15.093 8.329 14.698 8.715L11.131 12.207ZM24 17V21C24 22.654 22.654 24 21 24H14.621C12.721 24 11.07 22.647 10.698 20.784L10.059 17.588C9.882 16.704 10.109 15.796 10.681 15.098C11.252 14.401 12.098 14 13 14H16.183L15.603 10.735C15.546 10.401 15.574 10.216 15.596 10.136C15.784 9.446 16.346 9 17.028 9C17.241 9 17.456 9.044 17.668 9.132C17.922 9.237 18.171 9.499 18.35 9.851L20.543 14H20.999C22.653 14 24 15.346 24 17ZM14.621 22H20V16H13.001C12.7 16 12.419 16.133 12.229 16.365C12.038 16.598 11.962 16.901 12.021 17.195L12.66 20.391C12.847 21.323 13.672 21.999 14.622 21.999L14.621 22ZM7.777 17.688C4.376 16.706 2 13.544 2 10C2 5.589 5.589 2 10 2C13.06 2 15.807 3.703 17.169 6.445C17.414 6.94 18.013 7.143 18.51 6.896C19.004 6.65 19.206 6.05 18.96 5.556C17.257 2.128 13.824 0 10 0C4.486 0 0 4.486 0 10C0 14.43 2.97 18.381 7.223 19.609C7.316 19.635 7.409 19.648 7.5 19.648C7.935 19.648 8.334 19.364 8.461 18.925C8.614 18.395 8.308 17.841 7.777 17.688Z" fill="#333333"/>
</g>
<defs>
<clipPath id="clip0_602_13998">
<rect width="24" height="24" fill="white"/>
</clipPath>
</defs>
</svg>
