<svg width="20" height="20" viewBox="0 0 20 20" fill="none" xmlns="http://www.w3.org/2000/svg">
<g clip-path="url(#clip0_602_13930)">
<path d="M15 0H11.6667V0.833333C11.6667 1.27536 11.4911 1.69928 11.1785 2.01184C10.866 2.32441 10.442 2.5 10 2.5C9.55797 2.5 9.13405 2.32441 8.82149 2.01184C8.50893 1.69928 8.33333 1.27536 8.33333 0.833333V0H5C4.33696 0 3.70107 0.263392 3.23223 0.732233C2.76339 1.20107 2.5 1.83696 2.5 2.5V20H8.33333V19.1667C8.33333 18.7246 8.50893 18.3007 8.82149 17.9882C9.13405 17.6756 9.55797 17.5 10 17.5C10.442 17.5 10.866 17.6756 11.1785 17.9882C11.4911 18.3007 11.6667 18.7246 11.6667 19.1667V20H17.5V2.5C17.5 1.83696 17.2366 1.20107 16.7678 0.732233C16.2989 0.263392 15.663 0 15 0ZM13.2283 18.3333C13.0442 17.6171 12.627 16.9824 12.0426 16.5292C11.4581 16.076 10.7396 15.83 10 15.83C9.26043 15.83 8.54186 16.076 7.95742 16.5292C7.37297 16.9824 6.95583 17.6171 6.77167 18.3333H4.16667V14.1667H6.66667V12.5H4.16667V2.5C4.16667 2.27899 4.25446 2.06702 4.41074 1.91074C4.56702 1.75446 4.77899 1.66667 5 1.66667H6.77167C6.95583 2.38294 7.37297 3.01762 7.95742 3.47081C8.54186 3.924 9.26043 4.16995 10 4.16995C10.7396 4.16995 11.4581 3.924 12.0426 3.47081C12.627 3.01762 13.0442 2.38294 13.2283 1.66667H15C15.221 1.66667 15.433 1.75446 15.5893 1.91074C15.7455 2.06702 15.8333 2.27899 15.8333 2.5V12.5H13.3333V14.1667H15.8333V18.3333H13.2283Z" fill="#333333"/>
<path d="M11.6693 12.5H8.33594V14.1667H11.6693V12.5Z" fill="#333333"/>
</g>
<defs>
<clipPath id="clip0_602_13930">
<rect width="20" height="20" fill="white"/>
</clipPath>
</defs>
</svg>
